{
  "title": "The Revenant (2015) DVDSCR XVID-MAXSPEED",
  "uid": 13048816,
  "size": 2216135770,
  "categoryP": "video",
  "categoryS": "movies",
  "magnet": "?xt=urn:btih:6a43ebbc472e0d82527cbdcc559ace36ae07101f&amp;dn=The+Revenant+%282015%29+DVDSCR+XVID-MAXSPEED&amp;tr=udp%3A%2F%2Ftracker.leechers-paradise.org%3A6969&amp;tr=udp%3A%2F%2Fzer0day.ch%3A1337&amp;tr=udp%3A%2F%2Fopen.demonii.com%3A1337&amp;tr=udp%3A%2F%2Ftracker.coppersurfer.tk%3A6969&amp;tr=udp%3A%2F%2Fexodus.desync.com%3A6969",
  "seeders": 54,
  "leechers": 12,
  "uploader": "extremezone",
  "files": 4,
  "time": 1450599037,
  "description": "http://i.imgur.com/1T0RyKd.jpg\r\n\r\nScreens:\r\n \nhttp://i.imgur.com/6zbO16O.jpg \nhttp://i.imgur.com/xjqAnTf.jpg \nhttp://i.imgur.com/scAlm1p.jpg\r\n\r\nScreenCaps:\r\n \nhttp://i.imgur.com/swR66Nt.jpg\r\n\r\nThe Revenant (2015) DVDSCR XVID-MAXSPEED\r\nFormat                                   : AVI\r\nFormat/Info                              : Audio Video Interleave\r\nFormat profile                           : OpenDML\r\nFile size                                : 2.05 GiB\r\nDuration                                 : 2h 36mn\r\nOverall bit rate                         : 1 880 Kbps\r\nWriting application                      : VirtualDubMod 1.5.10.2 (build 2542/release)\r\nWriting library                          : VirtualDubMod build 2542/release\r\nOriginal source form                     : MAX TORRENTZ\r\nCopyright                                : SIGISMUNT\r\n\r\nVideo\r\nID                                       : 0\r\nFormat                                   : MPEG-4 Visual\r\nFormat profile                           : Advanced   \r\nFormat settings, BVOP                    : 2\r\nFormat settings, QPel                    : No\r\nFormat settings, GMC                     : No warppoints\r\nFormat settings, Matrix                  : Default (MPEG)\r\nCodec ID                                 : XVID\r\nCodec ID/Hint                            : XviD\r\nDuration                                 : 2h 36mn\r\nBit rate                                 : 1 420 Kbps\r\nWidth                                    : 720 pixels\r\nHeight                                   : 304 pixels\r\nDisplay aspect ratio                     : 2.35:1\r\nFrame rate                               : 23.976 fps\r\nColor space                              : YUV\r\nChroma subsampling                       : 4:2:0\r\nBit depth                                : 8 bits\r\nScan type                                : Progressive\r\nCompression mode                         : Lossy\r\nBits/(Pixel*Frame)                       : 0.271\r\nStream size                              : 1.55 GiB (76%)\r\nWriting library                          : XviD 1.2.1 (UTC 2008-12-04)\r\n\r\nAudio\r\nID                                       : 1\r\nFormat                                   : AC-3\r\nFormat/Info                              : Audio Coding 3\r\nMode extension                           : CM (complete main)\r\nFormat settings, Endianness              : Big\r\nCodec ID                                 : 2000\r\nDuration                                 : 2h 36mn\r\nBit rate mode                            : Constant\r\nBit rate                                 : 448 Kbps\r\nChannel(s)                               : 6 channels\r\nChannel positions                        : Front: L C R, Side: L R, LFE\r\nSampling rate                            : 48.0 KHz\r\nBit depth                                : 16 bits\r\nCompression mode                         : Lossy\r\nStream size                              : 501 MiB (24%)\r\nAlignment                                : Split accross interleaves\r\nInterleave, duration                     : 42 ms (1.00 video frame)\r\nInterleave, preload duration             : 500 ms\r\n\r\nSource: DVDSCR (clean encode/source, perfect a/v/sync quality,sample included)\r\nThis torrent is not seedbox supported,please seed it to the MAX\r\n\r\nUploader Note: If you think image it's a little dark on your device then\r\nVLC-&gt;Ctrl+E-&gt;Video Effects-&gt;Image adjust-&gt;Brightness-&gt;Close, simple as 1,2,3\r\nso no more complaints about this please,thank you\r\n\r\nNote: If you have something as early releases, seedboxes  http://torentz.3xforum.ro\r\nSeed Stats: 20-400 GiB at aprox 10 MiB/sec/20 slots per torrent\r\n\r\nHow To Get Your MAXSPEED (uTorrent)\r\n\r\nTorrent Client - Preferences - Bandwidth - Number of connections - Set aprox. 500 for each\r\nTorrent Client - Preferences - BiTorrent - Protocol Encryption - Forced\r\nBandwidth Allocation - High (Set download/upload limit - Unlimited)\r\nStop Other Active Torrents - Start downloading and wait for connections.\r\nEnjoy and Seed for at least 1:1 ratio. Don't forget to say thanks/leave reviews.\r\nFor other 480p, 720p, 1080p, x264, mkv, Bluray HD downloads use search function.\r\nIf screens/Caps image host is dead googlesearch &quot;release name&quot;+&quot;screens&quot; or &quot;sample&quot;.\r\nGreets to all actual/future p2p/scene QUALITY groups and affiliate websites.\r\nDon't trust IMDb robots/bots bad ratings,always watch some trailers first.\r\nIgnore stupid comments/fake/mislabeled/no-DVDrips/CAM/TS/RAR uploads.\r\nPlease spread this release/torrent to your friends/forums/etc.\r\nIf you need translation subs visit some subtitles sites.\r\nReport if you see online streaming or other spam links.\r\nMAXSPEED free full movie downloads 2008-2015.\r\nRecommended movie player VLC PLAYER",
  "parsed": {
    "xt": "urn:btih:6a43ebbc472e0d82527cbdcc559ace36ae07101f",
    "dn": "The Revenant (2015) DVDSCR XVID-MAXSPEED",
    "tr": [
      "udp://exodus.desync.com:6969",
      "udp://open.demonii.com:1337",
      "udp://tracker.coppersurfer.tk:6969",
      "udp://tracker.leechers-paradise.org:6969",
      "udp://zer0day.ch:1337"
    ],
    "infoHash": "6a43ebbc472e0d82527cbdcc559ace36ae07101f",
    "infoHashBuffer": {
      "type": "Buffer",
      "data": [
        106,
        67,
        235,
        188,
        71,
        46,
        13,
        130,
        82,
        124,
        189,
        204,
        85,
        154,
        206,
        54,
        174,
        7,
        16,
        31
      ]
    },
    "name": "The Revenant (2015) DVDSCR XVID-MAXSPEED",
    "announce": [
      "udp://exodus.desync.com:6969",
      "udp://open.demonii.com:1337",
      "udp://tracker.coppersurfer.tk:6969",
      "udp://tracker.leechers-paradise.org:6969",
      "udp://zer0day.ch:1337"
    ],
    "urlList": []
  },
  "previous": 90,
  "peers": 97,
  "last_updated": "2016-12-27T02:52:49.400Z"
}